[
  {
    "pts_time": "0.000000",
    "duration_time": "0.016000"
  },
  {
    "pts_time": "0.016000",
    "duration_time": "0.024000"
  },
  {
    "pts_time": "0.040000",
    "duration_time": "0.032000"
  },
  {
    "pts_time": "0.072000",
    "duration_time": "0.032000"
  },
  {
    "pts_time": "0.104000",
    "duration_time": "0.032000"
  },
  {
    "pts_time": "0.136000",
    "duration_time": "0.032000"
  },
  {
    "pts_time": "0.168000",
    "duration_time": "0.032000"
  },
  {
    "pts_time": "0.200000",
    "duration_time": "0.032000"
  },
  {
    "pts_time": "0.232000",
    "duration_time": "0.032000"
  },
  {
    "pts_time": "0.264000",
    "duration_time": "0.032000"
  },
  {
    "pts_time": "0.296000",
    "duration_time": "0.032000"
  },
  {
    "pts_time": "0.328000",
    "duration_time": "0.032000"
  },
  {
    "pts_time": "0.360000",
    "duration_time": "0.032000"
  },
  {
    "pts_time": "0.392000",
    "duration_time": "0.032000"
  },
  {
    "pts_time": "0.424000",
    "duration_time": "0.032000"
  },
  {
    "pts_time": "0.456000",
    "duration_time": "0.032000"
  },
  {
    "pts_time": "0.488000",
    "duration_time": "0.032000"
  },
  {
    "pts_time": "0.520000",
    "duration_time": "0.032000"
  },
  {
    "pts_time": "0.552000",
    "duration_time": "0.032000"
  },
  {
    "pts_time": "0.584000",
    "duration_time": "0.032000"
  },
  {
    "pts_time": "0.616000",
    "duration_time": "0.032000"
  },
  {
    "pts_time": "0.648000",
    "duration_time": "0.032000"
  },
  {
    "pts_time": "0.680000",
    "duration_time": "0.032000"
  },
  {
    "pts_time": "0.712000",
    "duration_time": "0.032000"
  },
  {
    "pts_time": "0.744000",
    "duration_time": "0.032000"
  },
  {
    "pts_time": "0.776000",
    "duration_time": "0.032000"
  },
  {
    "pts_time": "0.808000",
    "duration_time": "0.032000"
  },
  {
    "pts_time": "0.840000",
    "duration_time": "0.032000"
  },
  {
    "pts_time": "0.872000",
    "duration_time": "0.032000"
  },
  {
    "pts_time": "0.904000",
    "duration_time": "0.032000"
  },
  {
    "pts_time": "0.936000",
    "duration_time": "0.032000"
  },
  {
    "pts_time": "0.976000",
    "duration_time": "0.016000"
  },
  {
    "pts_time": "0.992000",
    "duration_time": "0.008000"
  }
]
